<?xml version="1.0"?>
<svg xmlns="http://www.w3.org/2000/svg" version="1" viewBox="0 0 24 24" enable-background="new 0 0 24 24">
    <path d="M 2 2 L 2 21 L 2 22 L 3 22 L 22 22 L 22 20 L 4 20 L 4 2 L 2 2 z M 13.5 2 C 12.119288 2 11 3.1192881 11 4.5 C 11 5.8807119 12.119288 7 13.5 7 C 14.880712 7 16 5.8807119 16 4.5 C 16 3.1192881 14.880712 2 13.5 2 z M 7.5 3 C 6.6715729 3 6 3.6715729 6 4.5 C 6 5.3284271 6.6715729 6 7.5 6 C 8.3284271 6 9 5.3284271 9 4.5 C 9 3.6715729 8.3284271 3 7.5 3 z M 19.5 3 C 18.671573 3 18 3.6715729 18 4.5 C 18 5.3284271 18.671573 6 19.5 6 C 20.328427 6 21 5.3284271 21 4.5 C 21 3.6715729 20.328427 3 19.5 3 z M 19.5 8 C 18.119288 8 17 9.1192881 17 10.5 C 17 11.880712 18.119288 13 19.5 13 C 20.880712 13 22 11.880712 22 10.5 C 22 9.1192881 20.880712 8 19.5 8 z M 7.5 9 C 6.6715729 9 6 9.6715729 6 10.5 C 6 11.328427 6.6715729 12 7.5 12 C 8.3284271 12 9 11.328427 9 10.5 C 9 9.6715729 8.3284271 9 7.5 9 z M 13.5 14 C 12.119288 14 11 15.119288 11 16.5 C 11 17.880712 12.119288 19 13.5 19 C 14.880712 19 16 17.880712 16 16.5 C 16 15.119288 14.880712 14 13.5 14 z M 7.5 15 C 6.6715729 15 6 15.671573 6 16.5 C 6 17.328427 6.6715729 18 7.5 18 C 8.3284271 18 9 17.328427 9 16.5 C 9 15.671573 8.3284271 15 7.5 15 z M 19.5 15 C 18.671573 15 18 15.671573 18 16.5 C 18 17.328427 18.671573 18 19.5 18 C 20.328427 18 21 17.328427 21 16.5 C 21 15.671573 20.328427 15 19.5 15 z"/>
</svg>
